<?xml version="1.0" encoding="utf-8"?>
<!-- Generator: Adobe Illustrator 17.0.2, SVG Export Plug-In . SVG Version: 6.00 Build 0)  -->
<!DOCTYPE svg PUBLIC "-//W3C//DTD SVG 1.1//EN" "http://www.w3.org/Graphics/SVG/1.1/DTD/svg11.dtd">
<svg version="1.1" id="Layer_1" xmlns="http://www.w3.org/2000/svg" xmlns:xlink="http://www.w3.org/1999/xlink" x="0px" y="0px"
	 width="380.32px" height="231.605px" viewBox="116.84 280.395 380.32 231.605"
	 enable-background="new 116.84 280.395 380.32 231.605" xml:space="preserve">
<g>
	<polygon fill="#3A4D6D" points="136.284,280.395 136.284,299.764 136.284,299.839 321.005,299.839 321.005,280.395 	"/>
	<rect x="379.339" y="309.561" fill="#3A4D6D" width="19.444" height="19.444"/>
	<rect x="340.45" y="338.728" fill="#3A4D6D" width="19.444" height="19.444"/>
	<rect x="311.283" y="445.672" fill="#3A4D6D" width="87.59" height="19.444"/>
	<polygon fill="#3A4D6D" points="175.173,445.672 194.474,453.667 192.849,452.993 	"/>
	<polygon fill="#3A4D6D" points="175.173,445.672 202.671,445.672 136.284,379.285 136.284,406.783 	"/>
	<path fill="#F58B3D" d="M192.849,452.993l1.625,0.673l5.419,2.245l22.223,9.205h22.814l-19.444-19.444c-0.16,0-22.814,0-22.814,0
		l0,0h-27.498L192.849,452.993z"/>
	<polygon fill="#F58B3D" points="297.534,490.197 311.283,503.946 311.283,465.116 311.283,445.672 291.839,465.116 
		291.839,484.527 297.521,490.209 	"/>
	<path fill="#F58B3D" d="M291.839,512l19.444-8.054L291.839,512z"/>
	<polygon fill="#F58B3D" points="340.45,299.839 321.005,280.395 321.005,299.839 321.005,338.728 340.45,358.172 340.45,338.728 	
		"/>
	<polygon fill="#F58B3D" points="359.894,329.005 359.894,338.728 359.894,358.172 379.339,338.728 379.339,329.005 
		379.339,309.561 	"/>
	<polygon fill="#F58B3D" points="136.284,280.395 116.914,299.764 116.84,299.764 116.84,359.804 136.284,406.783 136.284,379.285 
		136.284,299.839 136.284,299.764 	"/>
	<path fill="#F58B3D" d="M225.485,445.672l46.943,19.444C272.428,465.116,225.646,445.672,225.485,445.672z"/>
	<polygon fill="#3A4D6D" points="286.343,506.53 286.356,506.517 291.839,512 291.839,512 311.283,503.946 297.534,490.197 
		297.521,490.209 291.839,484.527 272.428,465.116 225.485,445.672 244.93,465.116 	"/>
	<polygon fill="#F58B3D" points="412.612,354.166 418.227,348.551 418.227,329.005 398.783,309.561 398.783,329.005 
		398.783,367.836 412.532,354.086 	"/>
	<polygon fill="#F58B3D" points="485.712,308.461 458.214,308.463 471.963,322.211 483.411,333.659 497.16,319.909 	"/>
	<polygon fill="#3A4D6D" points="437.652,329.126 418.227,348.551 412.612,354.166 412.532,354.086 398.783,367.836 
		418.227,375.889 423.657,370.459 423.737,370.539 465.102,329.077 471.963,322.212 458.214,308.463 451.421,315.256 	"/>
	<polygon fill="#3A4D6D" points="497.16,319.909 483.411,333.659 462.43,353.881 462.42,381.729 497.085,347.347 	"/>
	<polygon fill="#3A4D6D" points="453.266,415.946 462.415,394.349 453.625,415.099 	"/>
	<polygon fill="#3A4D6D" points="431.976,421.259 432.001,446.019 443.064,440.031 443.064,411.456 	"/>
	<path fill="#3A4D6D" d="M418.472,445.672l-1.767,3.238c3.732-6.779,9.102-16.495,12.379-22.422L418.472,445.672z"/>
	<path fill="#F58B3D" d="M443.064,390.312c0,0.161,0,20.745,0,20.745v0.399v28.575l7.691-18.156l2.511-5.929l0.359-0.847
		l8.79-20.751l0.005-12.62l0.011-27.848C462.43,353.881,443.064,390.152,443.064,390.312z"/>
	<path fill="#F58B3D" d="M429.084,426.487c-3.278,5.927-8.647,15.643-12.379,22.422c-2.436,4.424-4.173,7.598-4.173,7.646
		c0,0.08,0.013,5.833,0.026,11.565v35.885h19.444v-43.858v-11.95L432,446.019l-0.024-24.76
		C431.976,421.259,430.825,423.34,429.084,426.487z"/>
</g>
</svg>
