<?xml version="1.0" encoding="utf-8"?>
<!-- Generator: Adobe Illustrator 17.0.2, SVG Export Plug-In . SVG Version: 6.00 Build 0)  -->
<!DOCTYPE svg PUBLIC "-//W3C//DTD SVG 1.1//EN" "http://www.w3.org/Graphics/SVG/1.1/DTD/svg11.dtd">
<svg version="1.1" id="Layer_1" xmlns="http://www.w3.org/2000/svg" xmlns:xlink="http://www.w3.org/1999/xlink" x="0px" y="0px"
	 width="61px" height="306px" viewBox="0 0 61 306" enable-background="new 0 0 61 306" xml:space="preserve">
<path fill="#F68B3C" d="M10,0C6.577,0,3.234,0.343,0,0.986v100.027C3.234,101.657,6.577,102,10,102c28.167,0,51-22.833,51-51
	S38.167,0,10,0z"/>
<g>
	<path fill="#FFFFFF" d="M31.654,66.831L15.978,50.264l-0.632,0.6L31.022,67.43L31.654,66.831"/>
	<path fill="#FFFFFF" d="M32.484,34.57L15.917,50.246l0.6,0.632l16.567-15.676L32.484,34.57"/>
</g>
<path fill="#DF6E1A" d="M10,102.5c-3.423,0-6.766,0.343-10,0.986v100.027c3.234,0.644,6.577,0.987,10,0.987
	c28.167,0,51-22.833,51-51S38.167,102.5,10,102.5z"/>
<g>
	<path fill="#FFFFFF" d="M31.654,169.331l-15.676-16.567l-0.632,0.6l15.676,16.566L31.654,169.331"/>
	<path fill="#FFFFFF" d="M32.484,137.07l-16.567,15.676l0.6,0.632l16.567-15.676L32.484,137.07"/>
</g>
<path fill="#DF561A" d="M10,204c-3.423,0-6.766,0.343-10,0.986v100.027C3.234,305.657,6.577,306,10,306c28.167,0,51-22.833,51-51
	S38.167,204,10,204z"/>
<g>
	<path fill="#FFFFFF" d="M31.654,270.831l-15.676-16.567l-0.632,0.6l15.676,16.566L31.654,270.831"/>
	<path fill="#FFFFFF" d="M32.484,238.57l-16.567,15.676l0.6,0.632l16.567-15.676L32.484,238.57"/>
</g>
</svg>
