<?xml version="1.0" encoding="utf-8"?>
<!-- Generator: Adobe Illustrator 17.0.2, SVG Export Plug-In . SVG Version: 6.00 Build 0)  -->
<!DOCTYPE svg PUBLIC "-//W3C//DTD SVG 1.1//EN" "http://www.w3.org/Graphics/SVG/1.1/DTD/svg11.dtd">
<svg version="1.1" id="Layer_1" xmlns="http://www.w3.org/2000/svg" xmlns:xlink="http://www.w3.org/1999/xlink" x="0px" y="0px"
	 width="61px" height="306px" viewBox="0 0 61 306" enable-background="new 0 0 61 306" xml:space="preserve">
<path fill="#F68B3C" d="M0,51c0,28.167,22.833,51,51,51c3.423,0,6.766-0.343,10-0.987V0.986C57.766,0.343,54.423,0,51,0
	C22.833,0,0,22.833,0,51z"/>
<g>
	<path fill="#FFFFFF" d="M29.346,66.831l0.632,0.599l15.676-16.566l-0.632-0.6L29.346,66.831"/>
	<path fill="#FFFFFF" d="M28.516,34.57l-0.6,0.632l16.567,15.676l0.6-0.632L28.516,34.57"/>
</g>
<path fill="#DF6E1A" d="M0,153.5c0,28.167,22.833,51,51,51c3.423,0,6.766-0.343,10-0.987V103.486c-3.234-0.643-6.577-0.986-10-0.986
	C22.833,102.5,0,125.333,0,153.5z"/>
<g>
	<path fill="#FFFFFF" d="M29.346,169.331l0.632,0.599l15.676-16.566l-0.632-0.6L29.346,169.331"/>
	<path fill="#FFFFFF" d="M28.516,137.07l-0.6,0.632l16.567,15.676l0.6-0.632L28.516,137.07"/>
</g>
<path fill="#DF561A" d="M0,255c0,28.167,22.833,51,51,51c3.423,0,6.766-0.343,10-0.987V204.986C57.766,204.343,54.423,204,51,204
	C22.833,204,0,226.833,0,255z"/>
<g>
	<path fill="#FFFFFF" d="M29.346,270.831l0.632,0.599l15.676-16.566l-0.632-0.6L29.346,270.831"/>
	<path fill="#FFFFFF" d="M28.516,238.57l-0.6,0.632l16.567,15.676l0.6-0.632L28.516,238.57"/>
</g>
</svg>
