<?xml version="1.0" encoding="utf-8"?>
<!-- Generator: Adobe Illustrator 17.0.2, SVG Export Plug-In . SVG Version: 6.00 Build 0)  -->
<!DOCTYPE svg PUBLIC "-//W3C//DTD SVG 1.1//EN" "http://www.w3.org/Graphics/SVG/1.1/DTD/svg11.dtd">
<svg version="1.1" id="Layer_1" xmlns="http://www.w3.org/2000/svg" xmlns:xlink="http://www.w3.org/1999/xlink" x="0px" y="0px"
	 width="54px" height="54px" viewBox="0 0 54 54" enable-background="new 0 0 54 54" xml:space="preserve">
<g>
	<polygon fill="none" points="30.627,28.288 30.627,25.246 27.586,25.246 27.586,31.329 30.627,31.329 	"/>
	<polygon fill="none" points="21.503,16.123 21.503,19.164 21.503,22.205 24.544,22.205 24.544,16.123 	"/>
	<polygon fill="#F58B3D" points="39.956,4 9.006,4 9,7.041 39.956,7.041 42.997,7.041 	"/>
	<polygon fill="#3A4D6D" points="42.997,7.041 39.956,7.041 39.955,33.083 43,30.037 	"/>
	<rect x="27.586" y="13.081" fill="#3A4D6D" width="3.041" height="3.041"/>
	<rect x="21.503" y="13.081" fill="#3A4D6D" width="3.041" height="3.041"/>
	<rect x="21.503" y="31.329" fill="#3A4D6D" width="3.041" height="3.041"/>
	<polygon fill="#3A4D6D" points="30.627,34.37 30.627,34.37 30.627,34.37 	"/>
	<rect x="27.586" y="31.329" fill="#3A4D6D" width="3.041" height="3.041"/>
	<polygon fill="#F58B3D" points="24.544,37.411 27.586,37.411 27.586,34.37 27.586,31.329 27.586,25.246 24.544,25.246 
		24.544,31.329 24.544,34.37 	"/>
	<polygon fill="#F58B3D" points="24.544,22.205 27.586,22.205 27.586,16.123 27.586,13.081 27.586,10.082 24.544,10.082 
		24.544,13.081 24.544,16.123 	"/>
	<polygon fill="#F58B3D" points="30.627,19.164 33.668,19.164 33.668,16.123 30.627,13.081 30.627,16.123 	"/>
	<polygon fill="#F58B3D" points="18.462,28.288 18.462,31.329 21.503,34.37 21.503,31.329 21.503,28.288 	"/>
	<polygon fill="#F58B3D" points="30.627,25.246 30.627,28.288 30.627,31.329 30.627,34.37 30.627,34.37 33.668,31.329 
		33.668,28.288 33.668,25.246 30.627,22.205 30.627,25.246 	"/>
	<polygon fill="#F58B3D" points="21.503,19.164 21.503,16.123 21.503,13.081 18.462,16.123 18.462,19.164 18.462,22.205 
		21.503,25.246 21.503,22.205 	"/>
	<polygon fill="#3A4D6D" points="30.627,25.246 30.627,25.246 30.627,22.205 30.627,22.205 27.586,22.205 24.544,22.205 
		21.503,22.205 21.503,25.246 24.544,25.246 27.586,25.246 	"/>
	
		<line fill="none" stroke="#F58B3D" stroke-width="0" stroke-linecap="round" stroke-linejoin="round" x1="9.005" y1="10.077" x2="9.005" y2="10.088"/>
	<polygon fill="#F58B3D" points="12.047,33.083 12.045,30.037 12.045,13.113 12.043,13.113 12.043,10.088 9.005,10.088 
		9.005,13.113 9.003,13.113 9.003,30.037 9.002,30.037 12.047,33.083 	"/>
	<polygon fill="#3A4D6D" points="28.088,49.128 28.086,49.127 28.085,49.128 	"/>
	<polygon fill="#3A4D6D" points="12.047,33.083 9.002,30.037 12.047,37.383 23.915,49.127 26.001,47.041 	"/>
	<polygon fill="#F58B3D" points="43,30.037 39.955,33.083 26.001,47.041 23.915,49.127 23.914,49.128 23.917,49.128 28.085,49.128 
		28.086,49.127 39.955,37.383 	"/>
</g>
</svg>
