<?xml version="1.0" encoding="utf-8"?>
<!-- Generator: Adobe Illustrator 17.0.2, SVG Export Plug-In . SVG Version: 6.00 Build 0)  -->
<!DOCTYPE svg PUBLIC "-//W3C//DTD SVG 1.1//EN" "http://www.w3.org/Graphics/SVG/1.1/DTD/svg11.dtd">
<svg version="1.1" id="Layer_1" xmlns="http://www.w3.org/2000/svg" xmlns:xlink="http://www.w3.org/1999/xlink" x="0px" y="0px"
	 width="14px" height="14px" viewBox="0 0 14 14" enable-background="new 0 0 14 14" xml:space="preserve">
<path fill="#FFFFFF" d="M13.859,12.114l-3.662-3.656c0.54-0.852,0.856-1.859,0.856-2.941C11.052,2.471,8.578,0,5.527,0
	C2.474,0,0,2.47,0,5.517c0,3.048,2.474,5.517,5.527,5.517c1.072,0,2.071-0.31,2.918-0.838l3.668,3.662
	c0.285,0.285,0.908,0.125,1.39-0.356C13.984,13.022,14.144,12.4,13.859,12.114z M1.81,5.517c0-2.049,1.664-3.71,3.716-3.71
	s3.716,1.661,3.716,3.71c0,2.05-1.664,3.711-3.716,3.711S1.81,7.567,1.81,5.517z"/>
</svg>
