<?xml version="1.0" encoding="utf-8"?>
<!-- Generator: Adobe Illustrator 17.0.2, SVG Export Plug-In . SVG Version: 6.00 Build 0)  -->
<!DOCTYPE svg PUBLIC "-//W3C//DTD SVG 1.1//EN" "http://www.w3.org/Graphics/SVG/1.1/DTD/svg11.dtd">
<svg version="1.1" id="Layer_1" xmlns="http://www.w3.org/2000/svg" xmlns:xlink="http://www.w3.org/1999/xlink" x="0px" y="0px"
	 width="35px" height="36px" viewBox="0 0 35 36" enable-background="new 0 0 35 36" xml:space="preserve">
<g>
	<path fill="#F68B3C" d="M4,0h27c2.209,0,4,1.791,4,4v25c0,2.209-1.791,4-4,4H20.25l-3,3l-3-3H4c-2.209,0-4-1.791-4-4V4
		C0,1.791,1.791,0,4,0z"/>
	<g>
		<g>
			<polygon fill="#50525B" points="25.043,18.498 25.043,18.489 25.036,18.489 			"/>
			<polygon fill="#50525B" points="25.043,18.498 25.043,18.489 25.036,18.489 			"/>
			<polygon fill="#50525B" points="25.043,18.498 25.043,18.489 25.036,18.489 			"/>
			<g>
				<g>
					<path fill="#FFFFFF" d="M14.001,11.498c-1.658,0-3.002,1.344-3.002,3.002v3.998l1.998,1.997V14.5
						c0-0.554,0.45-1.004,1.004-1.004s1.004,0.449,1.004,1.004h1.998C17.002,12.842,15.658,11.498,14.001,11.498z"/>
					<polygon fill="#FFFFFF" points="21.001,28.5 19.003,26.501 19.003,20.495 21.001,20.495 					"/>
					<path fill="#FFFFFF" d="M21.001,14.5c0-3.866-3.134-7-7-7s-7,3.134-7,7l1.998,1.998V14.5l0,0c0-2.762,2.239-5.002,5.002-5.002
						c2.762,0,5.002,2.24,5.002,5.002v3.998h1.998V14.5L21.001,14.5z"/>
					<polygon fill="#FFFFFF" points="17.002,24.502 15.004,22.504 15.004,16.498 17.002,16.498 					"/>
				</g>
				<polygon fill="#50525B" points="15.498,15.618 15.498,15.609 15.492,15.609 				"/>
				<polygon fill="#50525B" points="15.498,15.618 15.498,15.609 15.492,15.609 				"/>
				<polygon fill="#50525B" points="15.498,15.618 15.498,15.609 15.492,15.609 				"/>
			</g>
		</g>
		<g>
			<path fill="#3B4C6D" d="M26.003,21.5c0,2.763-2.239,5.002-5.002,5.002V28.5c3.866,0,7-3.134,7-7s-3.134-7-7-7v1.998
				C23.763,16.498,26.003,18.737,26.003,21.5z"/>
			<rect x="8.998" y="14.5" fill="#3B4C6D" width="2.001" height="1.998"/>
			<rect x="12.997" y="18.498" fill="#3B4C6D" width="2.008" height="1.997"/>
			<rect x="17.002" y="22.502" fill="#3B4C6D" width="2.001" height="2"/>
			<rect x="12.997" y="14.5" fill="#3B4C6D" width="6.006" height="1.998"/>
			<path fill="#3B4C6D" d="M21,18.498h-3.997v1.997H21v0.001c0.555,0,1.004,0.45,1.004,1.004S21.555,22.504,21,22.504v1.998
				c1.658,0,3.002-1.344,3.002-3.002C24.002,19.842,22.658,18.498,21,18.498z"/>
		</g>
	</g>
</g>
</svg>
