<?xml version="1.0" encoding="utf-8"?>
<!-- Generator: Adobe Illustrator 17.0.2, SVG Export Plug-In . SVG Version: 6.00 Build 0)  -->
<!DOCTYPE svg PUBLIC "-//W3C//DTD SVG 1.1//EN" "http://www.w3.org/Graphics/SVG/1.1/DTD/svg11.dtd">
<svg version="1.1" id="Layer_1" xmlns="http://www.w3.org/2000/svg" xmlns:xlink="http://www.w3.org/1999/xlink" x="0px" y="0px"
	 width="12px" height="12px" viewBox="0 0 12 12" enable-background="new 0 0 12 12" xml:space="preserve">
<circle fill="#9FA0A1" cx="6" cy="6" r="6"/>
<path fill="#FFFFFF" d="M7.228,8.658H5.136v-0.29C5.204,8.362,5.273,8.356,5.345,8.35c0.071-0.006,0.134-0.018,0.187-0.035
	c0.082-0.026,0.143-0.072,0.183-0.138C5.753,8.111,5.773,8.025,5.773,7.92V5.247c0-0.094-0.021-0.179-0.064-0.257
	S5.608,4.848,5.532,4.795C5.476,4.76,5.396,4.729,5.29,4.705C5.185,4.68,5.088,4.665,5,4.659v-0.29l1.529-0.097l0.062,0.062v3.533
	c0,0.103,0.02,0.188,0.059,0.255c0.039,0.067,0.101,0.117,0.185,0.149c0.064,0.026,0.127,0.048,0.188,0.063
	c0.061,0.017,0.129,0.027,0.205,0.033V8.658z M6.679,2.562c0,0.167-0.055,0.313-0.165,0.437c-0.11,0.125-0.246,0.187-0.407,0.187
	c-0.149,0-0.279-0.059-0.389-0.178C5.609,2.89,5.554,2.754,5.554,2.602c0-0.161,0.055-0.302,0.165-0.422C5.829,2.06,5.958,2,6.107,2
	c0.167,0,0.304,0.057,0.411,0.169S6.679,2.413,6.679,2.562z"/>
</svg>
