<?xml version="1.0" encoding="utf-8"?>
<!-- Generator: Adobe Illustrator 17.0.2, SVG Export Plug-In . SVG Version: 6.00 Build 0)  -->
<!DOCTYPE svg PUBLIC "-//W3C//DTD SVG 1.1//EN" "http://www.w3.org/Graphics/SVG/1.1/DTD/svg11.dtd">
<svg version="1.1" id="Layer_1" xmlns="http://www.w3.org/2000/svg" xmlns:xlink="http://www.w3.org/1999/xlink" x="0px" y="0px"
	 width="54px" height="54px" viewBox="0 0 54 54" enable-background="new 0 0 54 54" xml:space="preserve">
<g>
	<polygon fill="#3B4C6D" points="26.821,38.319 32.968,51.5 36.136,49.935 29.989,36.752 26.821,38.317 26.821,38.318 	"/>
	<polygon fill="#3B4C6D" points="29.989,36.752 25.348,35.05 26.821,38.317 	"/>
	<polygon fill="#3B4C6D" points="33.017,35.359 42.69,30.85 39.739,28.379 31.545,32.201 	"/>
	<polygon fill="#F68C3D" points="26.821,38.319 26.821,38.318 26.821,38.317 25.348,35.05 14.246,40.256 14.246,44.186 	"/>
	<polygon fill="#3B4C6D" points="10.761,41.89 14.246,44.186 14.246,40.256 14.245,7.03 10.761,4.112 	"/>
	<polygon fill="#F68C3D" points="43.239,26.753 14.245,2.5 10.761,4.112 14.245,7.03 39.739,28.379 42.69,30.85 	"/>
</g>
</svg>
