<?xml version="1.0" encoding="utf-8"?>
<!-- Generator: Adobe Illustrator 17.0.2, SVG Export Plug-In . SVG Version: 6.00 Build 0)  -->
<!DOCTYPE svg PUBLIC "-//W3C//DTD SVG 1.1//EN" "http://www.w3.org/Graphics/SVG/1.1/DTD/svg11.dtd">
<svg version="1.1" id="Layer_1" xmlns="http://www.w3.org/2000/svg" xmlns:xlink="http://www.w3.org/1999/xlink" x="0px" y="0px"
	 width="54px" height="54px" viewBox="-278.5 423.5 54 54" enable-background="new -278.5 423.5 54 54" xml:space="preserve">
<g>
	<ellipse fill="none" cx="-252.5" cy="464.302" rx="1.5" ry="1.492"/>
	<path fill="none" d="M-264.5,471.515L-264.5,471.515h24v-43.03h-24V471.515L-264.5,471.515z M-252.5,459.825
		c2.486,0,4.5,2.005,4.5,4.477c0,2.473-2.014,4.477-4.5,4.477s-4.5-2.004-4.5-4.477S-254.986,459.825-252.5,459.825z"/>
	<polygon fill="#F58B3D" points="-240.5,428.485 -237.5,428.485 -240.5,425.5 -264.5,425.5 -264.5,428.485 	"/>
	<polygon fill="#F58B3D" points="-264.5,471.515 -264.5,471.515 -267.5,471.515 -267.5,471.515 -264.5,474.5 -240.5,474.5 
		-240.5,471.515 	"/>
	<polygon fill="#3A4D6D" points="-240.5,428.485 -240.5,471.515 -240.5,474.5 -237.5,471.515 -237.5,428.485 	"/>
	<path fill="#3A4D6D" d="M-267.5,471.515L-267.5,471.515L-267.5,471.515z"/>
	<polygon fill="#3A4D6D" points="-264.5,428.485 -264.5,425.5 -267.5,428.485 -267.5,471.515 -264.5,471.515 	"/>
	<path fill="#F58B3D" d="M-252.5,468.779c2.486,0,4.5-2.004,4.5-4.477c0-2.473-2.014-4.477-4.5-4.477s-4.5,2.005-4.5,4.477
		C-257,466.775-254.986,468.779-252.5,468.779z M-252.5,462.81c0.828,0,1.5,0.668,1.5,1.492s-0.671,1.492-1.5,1.492
		s-1.5-0.668-1.5-1.492S-253.328,462.81-252.5,462.81z"/>
</g>
</svg>
