<?xml version="1.0" encoding="utf-8"?>
<!-- Generator: Adobe Illustrator 17.0.2, SVG Export Plug-In . SVG Version: 6.00 Build 0)  -->
<!DOCTYPE svg PUBLIC "-//W3C//DTD SVG 1.1//EN" "http://www.w3.org/Graphics/SVG/1.1/DTD/svg11.dtd">
<svg version="1.1" id="Layer_1" xmlns="http://www.w3.org/2000/svg" xmlns:xlink="http://www.w3.org/1999/xlink" x="0px" y="0px"
	 width="52px" height="43px" viewBox="0 0 52 43" enable-background="new 0 0 52 43" xml:space="preserve">
<g>
	<polygon fill="#385072" points="20.706,25.876 20.706,29.392 22.088,30.774 22.088,25.876 	"/>
	<polygon fill="#F68C3D" points="31.294,29.392 20.706,29.392 22.088,30.774 29.912,30.774 	"/>
	<polygon fill="#385072" points="31.294,29.392 31.294,22.361 29.912,20.978 29.912,30.774 	"/>
	<polygon fill="#F68C3D" points="22.088,22.361 31.294,22.361 29.912,20.979 20.706,20.979 	"/>
	<polygon fill="#385072" points="20.706,13.627 20.706,20.979 22.088,22.361 22.088,12.244 	"/>
	<polygon fill="#385072" points="31.294,17.303 31.294,13.626 29.912,12.244 29.912,17.303 	"/>
	<polygon fill="#F68C3D" points="20.706,13.627 29.912,13.627 29.912,12.245 22.088,12.245 	"/>
	<rect x="25.285" y="22.361" fill="#385072" width="1.382" height="9.793"/>
	<rect x="25.285" y="10.862" fill="#385072" width="1.382" height="10.116"/>
</g>
<g>
	<polygon fill="#3A4C6C" points="4.41,38.606 4.41,0 0,4.41 0,38.606 	"/>
	<polygon fill="#F68C3D" points="4.41,4.41 52,4.41 47.589,0 4.41,0 	"/>
	<polygon fill="#3A4C6C" points="47.59,4.41 47.59,43.016 52,38.605 52,4.41 	"/>
	<polygon fill="#F68C3D" points="47.59,38.606 0,38.606 4.411,43.016 47.59,43.016 	"/>
</g>
</svg>
