<?xml version="1.0" encoding="utf-8"?>
<!-- Generator: Adobe Illustrator 17.0.2, SVG Export Plug-In . SVG Version: 6.00 Build 0)  -->
<!DOCTYPE svg PUBLIC "-//W3C//DTD SVG 1.1//EN" "http://www.w3.org/Graphics/SVG/1.1/DTD/svg11.dtd">
<svg version="1.1" id="Layer_1" xmlns="http://www.w3.org/2000/svg" xmlns:xlink="http://www.w3.org/1999/xlink" x="0px" y="0px"
	 width="1500px" height="1215px" viewBox="0 0 1500 1215" enable-background="new 0 0 1500 1215" xml:space="preserve">
<path fill="#9E9FA0" d="M1050.5,637c-1.933,0-3.5,1.668-3.5,3.726c0,0.044,0.001,0.089,0.003,0.134
	c0.013,0.391,0.083,0.767,0.2,1.119c0.747,2.613,3.297,6.021,3.297,6.021s2.55-3.408,3.296-6.021c0.118-0.352,0.187-0.728,0.2-1.119
	c0.002-0.045,0.003-0.09,0.003-0.134C1054,638.668,1052.433,637,1050.5,637z M1050.5,642.551c-0.947,0-1.714-0.817-1.714-1.825
	c0-1.008,0.768-1.825,1.714-1.825c0.947,0,1.714,0.817,1.714,1.825C1052.214,641.734,1051.447,642.551,1050.5,642.551z"/>
</svg>
