<?xml version="1.0" encoding="utf-8"?>
<!-- Generator: Adobe Illustrator 17.0.2, SVG Export Plug-In . SVG Version: 6.00 Build 0)  -->
<!DOCTYPE svg PUBLIC "-//W3C//DTD SVG 1.1//EN" "http://www.w3.org/Graphics/SVG/1.1/DTD/svg11.dtd">
<svg version="1.1" id="Layer_1" xmlns="http://www.w3.org/2000/svg" xmlns:xlink="http://www.w3.org/1999/xlink" x="0px" y="0px"
	 width="14.999px" height="15.001px" viewBox="0 0 14.999 15.001" enable-background="new 0 0 14.999 15.001" xml:space="preserve">
<path fill="#3B4C6C" d="M14.802,2.174l0.003-0.003l0,0c0.12-0.21,0.194-0.448,0.194-0.704c0-0.81-0.684-1.467-1.527-1.467
	c-0.488,0-0.917,0.223-1.196,0.565h-0.001L12.27,0.573c-0.077,0.095-0.146,0.197-0.197,0.31l-6.352,9.996L2.797,7.448l0,0
	c-0.274-0.393-0.74-0.652-1.27-0.652C0.683,6.796,0,7.453,0,8.262C0,8.673,0.178,9.044,0.462,9.31l3.883,5.02h0.001
	c0.272,0.403,0.742,0.671,1.28,0.671c0.637,0,1.182-0.376,1.411-0.908L14.7,2.335C14.737,2.283,14.77,2.229,14.802,2.174z"/>
</svg>
