<?xml version="1.0" encoding="utf-8"?>
<!-- Generator: Adobe Illustrator 17.0.2, SVG Export Plug-In . SVG Version: 6.00 Build 0)  -->
<!DOCTYPE svg PUBLIC "-//W3C//DTD SVG 1.1//EN" "http://www.w3.org/Graphics/SVG/1.1/DTD/svg11.dtd">
<svg version="1.1" id="ART" xmlns="http://www.w3.org/2000/svg" xmlns:xlink="http://www.w3.org/1999/xlink" x="0px" y="0px"
	 width="22px" height="35.394px" viewBox="0 0 22 35.394" enable-background="new 0 0 22 35.394" xml:space="preserve">
<g>
	<g>
		<polygon fill="#3A4C6C" points="14.745,9.088 14.745,9.088 14.745,9.088 		"/>
		<polygon fill="#3A4C6C" points="14.745,6.495 14.745,6.495 14.745,6.495 		"/>
		<polygon fill="#F68C3D" points="16.042,7.792 14.745,6.495 14.745,9.088 20.704,15.046 22,13.75 		"/>
	</g>
	
		<rect x="17.456" y="-0.049" transform="matrix(0.7071 0.7071 -0.7071 0.7071 8.3262 -11.772)" fill="#FFFFFF" width="1.833" height="8.426"/>
	<polygon fill="#FFFFFF" points="3.667,13.75 3.667,15.583 20.167,15.583 21.241,15.583 22,13.75 20.167,13.75 	"/>
	<polygon fill="#F68C3D" points="21.241,0 20.167,0 1.833,0 1.833,1.833 20.167,1.833 22,1.833 	"/>
	<polygon fill="#FFFFFF" points="0,1.833 0,35.394 1.833,35.394 1.833,1.833 1.833,0 	"/>
</g>
</svg>
