<?xml version="1.0" encoding="utf-8"?>
<!-- Generator: Adobe Illustrator 17.0.2, SVG Export Plug-In . SVG Version: 6.00 Build 0)  -->
<!DOCTYPE svg PUBLIC "-//W3C//DTD SVG 1.1//EN" "http://www.w3.org/Graphics/SVG/1.1/DTD/svg11.dtd">
<svg version="1.1" id="Layer_1" xmlns="http://www.w3.org/2000/svg" xmlns:xlink="http://www.w3.org/1999/xlink" x="0px" y="0px"
	 width="56px" height="43px" viewBox="0 0 56 43" enable-background="new 0 0 56 43" xml:space="preserve">
<g>
	<polygon fill="#3B4C6D" points="2.863,4 2.863,6.843 2.863,6.854 30.062,6.854 30.062,4 	"/>
	<rect x="38.651" y="8.282" fill="#3B4C6D" width="2.863" height="2.854"/>
	<rect x="32.925" y="12.563" fill="#3B4C6D" width="2.863" height="2.854"/>
	<rect x="28.631" y="28.263" fill="#3B4C6D" width="12.897" height="2.854"/>
	<polygon fill="#3B4C6D" points="8.589,28.263 11.431,29.437 11.192,29.338 	"/>
	<polygon fill="#3B4C6D" points="8.589,28.263 12.638,28.263 2.863,18.517 2.863,22.554 	"/>
	<path fill="#F68C3D" d="M11.192,29.338l0.239,0.099l0.798,0.33l3.272,1.351h3.359l-2.863-2.854c-0.024,0-3.359,0-3.359,0l0,0H8.589
		L11.192,29.338z"/>
	<polygon fill="#F68C3D" points="26.606,34.799 28.631,36.818 28.631,31.117 28.631,28.263 25.768,31.117 25.768,33.967 
		26.604,34.801 	"/>
	<polygon fill="#F68C3D" points="25.768,38 28.631,36.818 25.768,38 	"/>
	<polygon fill="#F68C3D" points="32.925,6.854 30.062,4 30.062,6.854 30.062,12.563 32.925,15.418 32.925,12.563 	"/>
	<polygon fill="#F68C3D" points="35.788,11.136 35.788,12.563 35.788,15.418 38.651,12.563 38.651,11.136 38.651,8.282 	"/>
	<polygon fill="#F68C3D" points="2.863,4 0.011,6.843 0,6.843 0,15.657 2.863,22.554 2.863,18.517 2.863,6.854 2.863,6.843 	"/>
	<path fill="#F68C3D" d="M15.997,28.263l6.912,2.854C22.909,31.117,16.021,28.263,15.997,28.263z"/>
	<polygon fill="#3B4C6D" points="24.958,37.197 24.96,37.195 25.768,38 25.768,38 28.631,36.818 26.606,34.799 26.604,34.801 
		25.768,33.967 22.909,31.117 15.997,28.263 18.86,31.117 	"/>
	<polygon fill="#F68C3D" points="43.551,14.83 44.378,14.005 44.378,11.136 41.514,8.282 41.514,11.136 41.514,16.836 
		43.539,14.818 	"/>
	<polygon fill="#F68C3D" points="54.314,8.12 50.265,8.12 52.29,10.139 53.975,11.819 56,9.801 	"/>
	<polygon fill="#3B4C6D" points="47.238,11.154 44.378,14.005 43.551,14.83 43.539,14.818 41.514,16.836 44.378,18.019 
		45.177,17.222 45.189,17.233 51.28,11.147 52.29,10.139 50.265,8.12 49.265,9.118 	"/>
	<polygon fill="#3B4C6D" points="56,9.801 53.975,11.819 50.886,14.788 50.885,18.876 55.989,13.829 	"/>
	<polygon fill="#3B4C6D" points="49.537,23.899 50.884,20.729 49.59,23.775 	"/>
	<polygon fill="#3B4C6D" points="46.402,24.679 46.406,28.314 48.035,27.435 48.035,23.24 	"/>
	<path fill="#3B4C6D" d="M44.414,28.263l-0.26,0.475c0.549-0.995,1.34-2.422,1.823-3.292L44.414,28.263z"/>
	<path fill="#F68C3D" d="M48.035,20.136c0,0.024,0,3.045,0,3.045v0.059v4.195l1.132-2.665l0.37-0.87l0.053-0.124l1.294-3.046
		l0.001-1.853l0.002-4.088C50.886,14.788,48.035,20.113,48.035,20.136z"/>
	<path fill="#F68C3D" d="M45.976,25.447c-0.483,0.87-1.273,2.296-1.823,3.292c-0.359,0.65-0.614,1.115-0.614,1.122
		c0,0.012,0.002,0.856,0.004,1.698v5.268h2.863v-6.438v-1.754l0-0.32l-0.004-3.635C46.402,24.679,46.232,24.985,45.976,25.447z"/>
</g>
</svg>
