<?xml version="1.0" encoding="utf-8"?>
<!-- Generator: Adobe Illustrator 17.0.2, SVG Export Plug-In . SVG Version: 6.00 Build 0)  -->
<!DOCTYPE svg PUBLIC "-//W3C//DTD SVG 1.1//EN" "http://www.w3.org/Graphics/SVG/1.1/DTD/svg11.dtd">
<svg version="1.1" id="Layer_1" xmlns="http://www.w3.org/2000/svg" xmlns:xlink="http://www.w3.org/1999/xlink" x="0px" y="0px"
	 width="44px" height="44px" viewBox="0 0 44 44" enable-background="new 0 0 44 44" xml:space="preserve">
<path fill="#FFFFFF" d="M43.556,38.074L32.048,26.583c1.696-2.677,2.691-5.843,2.691-9.244C34.736,7.766,26.959,0,17.369,0
	C7.775,0,0,7.764,0,17.341c0,9.579,7.775,17.341,17.369,17.341c3.37,0,6.508-0.975,9.17-2.633l11.528,11.508
	c0.895,0.895,2.853,0.394,4.369-1.118C43.95,40.927,44.451,38.971,43.556,38.074z M5.689,17.341c0-6.439,5.229-11.66,11.678-11.66
	s11.678,5.221,11.678,11.66c0,6.442-5.229,11.662-11.678,11.662S5.689,23.782,5.689,17.341z"/>
</svg>
