<?xml version="1.0" encoding="utf-8"?>
<!-- Generator: Adobe Illustrator 17.0.2, SVG Export Plug-In . SVG Version: 6.00 Build 0)  -->
<!DOCTYPE svg PUBLIC "-//W3C//DTD SVG 1.1//EN" "http://www.w3.org/Graphics/SVG/1.1/DTD/svg11.dtd">
<svg version="1.1" id="Layer_1" xmlns="http://www.w3.org/2000/svg" xmlns:xlink="http://www.w3.org/1999/xlink" x="0px" y="0px"
	 width="20px" height="21px" viewBox="0 0 20 21" enable-background="new 0 0 20 21" xml:space="preserve">
<path fill="#D8DBE2" d="M19.798,17.306l-5.231-5.223c0.771-1.217,1.223-2.656,1.223-4.202C15.789,3.53,12.254,0,7.895,0
	C3.534,0,0,3.529,0,7.882c0,4.354,3.534,7.882,7.895,7.882c1.532,0,2.958-0.443,4.168-1.197l5.24,5.231
	c0.407,0.407,1.297,0.179,1.986-0.508C19.977,18.603,20.205,17.714,19.798,17.306z M2.586,7.882c0-2.927,2.377-5.3,5.308-5.3
	s5.308,2.373,5.308,5.3c0,2.928-2.377,5.301-5.308,5.301S2.586,10.81,2.586,7.882z"/>
</svg>
