<?xml version="1.0" encoding="utf-8"?>
<!-- Generator: Adobe Illustrator 17.0.2, SVG Export Plug-In . SVG Version: 6.00 Build 0)  -->
<!DOCTYPE svg PUBLIC "-//W3C//DTD SVG 1.1//EN" "http://www.w3.org/Graphics/SVG/1.1/DTD/svg11.dtd">
<svg version="1.1" id="Layer_1" xmlns="http://www.w3.org/2000/svg" xmlns:xlink="http://www.w3.org/1999/xlink" x="0px" y="0px"
	 width="54px" height="54px" viewBox="0 0 54 54" enable-background="new 0 0 54 54" xml:space="preserve">
<g>
	<polygon fill="#3A4D6D" points="2.761,10.558 2.761,13.308 2.761,13.318 28.989,13.318 28.989,10.558 	"/>
	<rect x="37.271" y="14.699" fill="#3A4D6D" width="2.761" height="2.761"/>
	<rect x="31.749" y="18.84" fill="#3A4D6D" width="2.761" height="2.761"/>
	<rect x="27.608" y="34.025" fill="#3A4D6D" width="12.437" height="2.761"/>
	<polygon fill="#3A4D6D" points="8.282,34.025 11.023,35.16 10.792,35.064 	"/>
	<polygon fill="#3A4D6D" points="8.282,34.025 12.187,34.025 2.761,24.599 2.761,28.503 	"/>
	<path fill="#F58B3D" d="M10.792,35.064l0.231,0.096l0.769,0.319l3.155,1.307h3.239l-2.761-2.761c-0.023,0-3.239,0-3.239,0l0,0
		H8.283L10.792,35.064z"/>
	<polygon fill="#F58B3D" points="25.656,40.347 27.608,42.299 27.608,36.785 27.608,34.025 24.847,36.785 24.847,39.542 
		25.654,40.348 	"/>
	<path fill="#F58B3D" d="M24.847,43.442l2.761-1.144L24.847,43.442z"/>
	<polygon fill="#F58B3D" points="31.749,13.318 28.989,10.558 28.989,13.318 28.989,18.84 31.749,21.601 31.749,18.84 	"/>
	<polygon fill="#F58B3D" points="34.51,17.46 34.51,18.84 34.51,21.601 37.271,18.84 37.271,17.46 37.271,14.699 	"/>
	<polygon fill="#F58B3D" points="2.761,10.558 0.011,13.308 0,13.308 0,21.833 2.761,28.503 2.761,24.599 2.761,13.318 
		2.761,13.308 	"/>
	<path fill="#F58B3D" d="M15.426,34.025l6.665,2.761C22.091,36.785,15.449,34.025,15.426,34.025z"/>
	<polygon fill="#3A4D6D" points="24.067,42.666 24.069,42.664 24.847,43.442 24.847,43.442 27.608,42.299 25.656,40.347 
		25.654,40.348 24.847,39.542 22.091,36.785 15.426,34.025 18.187,36.785 	"/>
	<polygon fill="#F58B3D" points="41.995,21.032 42.793,20.235 42.793,17.46 40.032,14.699 40.032,17.46 40.032,22.973 
		41.984,21.021 	"/>
	<polygon fill="#F58B3D" points="52.375,14.543 48.47,14.543 50.422,16.495 52.048,18.12 54,16.168 	"/>
	<polygon fill="#3A4D6D" points="45.551,17.477 42.793,20.235 41.995,21.032 41.984,21.021 40.032,22.973 42.793,24.116 
		43.564,23.346 43.575,23.357 49.448,17.47 50.422,16.495 48.47,14.543 47.506,15.507 	"/>
	<polygon fill="#3A4D6D" points="54,16.168 52.048,18.12 49.069,20.992 49.067,24.946 53.989,20.064 	"/>
	<polygon fill="#3A4D6D" points="47.768,29.804 49.067,26.738 47.819,29.684 	"/>
	<polygon fill="#3A4D6D" points="44.745,30.558 44.748,34.074 46.319,33.224 46.319,29.166 	"/>
	<path fill="#3A4D6D" d="M42.827,34.025l-0.251,0.46c0.53-0.963,1.292-2.342,1.758-3.184L42.827,34.025z"/>
	<path fill="#F58B3D" d="M46.319,26.164c0,0.023,0,2.945,0,2.945v0.057v4.057l1.092-2.578l0.357-0.842l0.051-0.12l1.248-2.946
		l0.001-1.792l0.002-3.954C49.069,20.992,46.319,26.142,46.319,26.164z"/>
	<path fill="#F58B3D" d="M44.334,31.301c-0.465,0.842-1.228,2.221-1.758,3.184c-0.346,0.628-0.593,1.079-0.593,1.086
		c0,0.011,0.002,0.828,0.004,1.642v5.095h2.761V36.08v-1.697l0-0.309l-0.003-3.516C44.745,30.558,44.581,30.854,44.334,31.301z"/>
</g>
</svg>
