<?xml version="1.0" encoding="utf-8"?>
<!-- Generator: Adobe Illustrator 17.0.2, SVG Export Plug-In . SVG Version: 6.00 Build 0)  -->
<!DOCTYPE svg PUBLIC "-//W3C//DTD SVG 1.1//EN" "http://www.w3.org/Graphics/SVG/1.1/DTD/svg11.dtd">
<svg version="1.1" id="Layer_1" xmlns="http://www.w3.org/2000/svg" xmlns:xlink="http://www.w3.org/1999/xlink" x="0px" y="0px"
	 width="10px" height="10px" viewBox="0 0 10 10" enable-background="new 0 0 10 10" xml:space="preserve">
<path fill="#87888A" d="M9.858,8.351L7.63,6.708C7.395,6.559,7.186,6.586,6.995,6.777L6.662,7.14
	C6.565,7.237,6.375,7.316,6.238,7.318c0,0-0.569,0.281-2.204-1.354L4.033,5.964c0,0-0.001-0.001-0.001-0.002
	C2.396,4.327,2.678,3.758,2.678,3.758c0.001-0.136,0.082-0.327,0.178-0.424l0.363-0.334c0.191-0.19,0.216-0.4,0.068-0.635
	L1.643,0.138C1.476-0.06,1.276-0.052,1.06,0.165L0.216,1.008C0.12,1.104,0.026,1.294,0.008,1.429c0,0-0.312,2.333,2.956,5.601
	s5.601,2.956,5.601,2.956C8.7,9.968,8.891,9.874,8.987,9.778L9.83,8.934C10.048,8.718,10.056,8.518,9.858,8.351z"/>
</svg>
