<?xml version="1.0" encoding="utf-8"?>
<!-- Generator: Adobe Illustrator 17.0.2, SVG Export Plug-In . SVG Version: 6.00 Build 0)  -->
<!DOCTYPE svg PUBLIC "-//W3C//DTD SVG 1.1//EN" "http://www.w3.org/Graphics/SVG/1.1/DTD/svg11.dtd">
<svg version="1.1" id="Layer_1" xmlns="http://www.w3.org/2000/svg" xmlns:xlink="http://www.w3.org/1999/xlink" x="0px" y="0px"
	 width="422.794px" height="107.713px" viewBox="0 0 422.794 107.713" enable-background="new 0 0 422.794 107.713"
	 xml:space="preserve">
<g>
	<polygon fill="#C4C9D3" points="227.114,71.209 237.819,59.961 228.021,59.961 218.827,69.853 218.827,48.869 211.687,48.869 
		211.687,87.207 218.827,87.207 218.827,79.946 221.929,76.677 229.212,87.207 238.397,87.207 	"/>
	<path fill="#C4C9D3" d="M143.353,58.735c-4.119,0-6.262,0.951-8.166,3.014V48.87h-6.995v38.336h6.879v-3.07
		c2.34,2.53,5.244,3.748,7.998,3.748c7.893,0,12.346-6.257,12.346-14.658C155.416,64.993,151.47,58.735,143.353,58.735z
		 M142.011,81.171c-3.779,0-6.703-2.874-6.703-7.892c0-5.078,2.923-7.836,6.703-7.836c3.832,0,6.143,2.758,6.143,7.836
		C148.154,78.352,145.843,81.171,142.011,81.171z"/>
	<path fill="#C4C9D3" d="M199.383,58.846c-2.983,0-5.759,1.185-7.452,4.058v-3.365h-7.275v27.667h7.501V71.253
		c0-3.215,1.395-5.753,4.668-5.753c3.607,0,5.098,2.534,5.098,5.633v16.186h7.499v-17.48
		C209.422,63.753,206.103,58.846,199.383,58.846z"/>
	<path fill="#C4C9D3" d="M169.786,57.897c-6.982,0-11.005,4.109-12,8.216c-0.305,1.192-0.32,2.604-0.32,2.604h6.939
		c0.229-2.487,2.083-4.629,5.439-4.629c3.24,0,4.802,1.679,4.802,3.704c0,0.983-0.522,1.792-2.141,2.025l-7.003,1.041
		c-4.746,0.695-8.506,3.53-8.506,8.625c0,4.454,3.704,8.562,9.779,8.562c4.22,0,6.936-1.963,8.387-4.218v3.379h7l0.006-18.489
		C182.169,62.99,178.811,57.897,169.786,57.897z M174.646,75.72c0,5.031-3.009,6.597-6.249,6.597c-2.491,0-3.705-1.62-3.705-3.3
		c0-2.198,1.562-3.297,3.528-3.586l6.426-0.984L174.646,75.72L174.646,75.72z"/>
	<path fill="#C4C9D3" d="M71.81,35.903h-0.001C71.809,16.072,55.734,0,35.906,0C16.075,0,0,16.073,0,35.903l10.248,10.248h10.26
		v10.26l10.248,10.241h10.297v10.305L51.3,87.206v0.001h10.263v10.251l10.246,10.252v0.003c0.001,0,0.001,0,0.003,0
		c19.829-0.001,35.902-16.074,35.902-35.903C107.712,51.979,91.639,35.904,71.81,35.903z M41.053,56.411H30.756v-10.26h10.297
		V56.411z M30.755,35.903c0-2.843,2.306-5.147,5.15-5.147c2.843,0,5.147,2.305,5.147,5.147H30.755z M61.562,76.95H51.301V66.599
		l0.005,0.053h10.256V76.95z M51.301,56.411v-10.26h10.261v10.26 M51.301,35.903c0-8.503-6.893-15.397-15.395-15.397
		c-8.503,0-15.398,6.894-15.398,15.397h-10.26c0-14.169,11.487-25.657,25.658-25.657c14.169,0,25.657,11.488,25.657,25.657H51.301z
		 M71.81,97.465V87.204c8.502-0.001,15.394-6.895,15.394-15.396c0-8.505-6.893-15.398-15.397-15.398h0.003V46.15
		c14.169,0.001,25.654,11.488,25.654,25.658C97.464,85.978,85.979,97.464,71.81,97.465z M71.81,76.957V66.659
		c2.843,0.002,5.146,2.308,5.146,5.15C76.956,74.651,74.653,76.955,71.81,76.957z"/>
</g>
<g>
	<path fill="#C4C9D3" d="M422.793,46.146h-7.018v-3.071c-2.342,2.531-5.244,3.748-7.998,3.748c-7.895,0-12.345-6.259-12.345-14.657
		c0-8.234,3.943-14.492,12.06-14.492c4.119,0,6.266,0.952,8.169,3.015V7.809h7.133v38.337H422.793z M402.692,32.219
		c0,5.073,2.31,7.891,6.145,7.891c3.777,0,6.7-2.872,6.7-7.891c0-5.078-2.923-7.835-6.7-7.835
		C405.001,24.384,402.692,27.141,402.692,32.219z"/>
	<g>
		<g>
			<path fill="#C4C9D3" d="M138.454,46.144V18.426h7.157v3.38c1.521-2.701,5.069-4.164,8.112-4.164c3.775,0,6.816,1.629,8.226,4.614
				c2.195-3.376,5.122-4.614,8.787-4.614c5.127,0,10.03,3.093,10.03,10.532v17.969h-7.271V29.694c0-2.986-1.462-5.241-4.9-5.241
				c-3.211,0-5.125,2.479-5.125,5.466v16.224h-7.437V29.694c0-2.986-1.521-5.241-4.904-5.241c-3.264,0-5.181,2.419-5.181,5.466
				v16.224L138.454,46.144L138.454,46.144z"/>
			<path fill="#C4C9D3" d="M211.687,46.151V7.605h7.14v38.546H211.687z"/>
			<path fill="#C4C9D3" d="M279.844,46.144V18.426h7.157v3.38c1.523-2.701,5.07-4.164,8.111-4.164c3.775,0,6.819,1.629,8.226,4.614
				c2.198-3.376,5.128-4.614,8.789-4.614c5.123,0,10.025,3.093,10.025,10.532v17.969h-7.266V29.694c0-2.986-1.467-5.241-4.903-5.241
				c-3.211,0-5.125,2.479-5.125,5.466v16.224h-7.436V29.694c0-2.986-1.521-5.241-4.9-5.241c-3.266,0-5.182,2.419-5.182,5.466v16.224
				L279.844,46.144L279.844,46.144z"/>
			<path fill="#C4C9D3" d="M359.849,18.426h5.58v6.651h-5.58V36.68c0,2.421,1.127,3.213,3.269,3.213
				c0.899,0,1.913-0.115,2.311-0.226v6.193c-0.68,0.284-2.032,0.676-4.227,0.676c-5.41,0-8.792-3.205-8.792-8.559V8.761h7.439
				V18.426z"/>
			<path fill="#C4C9D3" d="M380.673,40.568c-3.713,0-6.813-2.649-6.984-6.311h19.833c0-0.113,0.111-1.24,0.111-2.311
				c0-8.903-5.125-14.367-13.689-14.367c-7.098,0-13.635,5.744-13.635,14.594c0,9.348,6.703,14.816,14.311,14.816
				c6.818,0,11.212-4.001,12.618-8.789h-7.254C384.894,39.646,383.203,40.568,380.673,40.568z M380.055,23.665
				c4.282,0,6.082,2.705,6.198,5.469H373.86C374.028,26.597,376.169,23.665,380.055,23.665z"/>
			<g>
				<path fill="#C4C9D3" d="M242.274,18.426v3.269c-0.957-1.862-3.488-3.774-7.884-3.774c-7.605,0-12.901,6.194-12.901,13.517
					c0,7.773,5.521,13.469,12.901,13.469c4,0,6.589-1.748,7.716-3.553v2.027c0,5.352-2.646,7.721-7.378,7.721
					c-2.21,0-3.97-0.86-5.112-2.234h-7.854c1.325,4.787,6.168,8.828,13.188,8.828c10.426,0,14.537-6.935,14.537-14.538V18.426
					H242.274z M235.685,38.479c-3.889,0-6.647-2.701-6.647-7.041c0-4.281,2.93-6.984,6.647-6.984c3.604,0,6.537,2.704,6.537,6.984
					C242.222,35.721,239.515,38.479,235.685,38.479z"/>
			</g>
		</g>
		<path fill="#C4C9D3" d="M122.816,16.818c-6.982,0-11.004,4.109-11.999,8.217c-0.004,0.01,0.003-0.011,0,0
			c-0.306,1.19-0.32,2.603-0.32,2.603h6.94c0.228-2.487,2.083-4.628,5.438-4.628c3.24,0,4.802,1.677,4.802,3.704
			c0,0.984-0.522,1.793-2.14,2.023l-7.004,1.042c-4.746,0.695-8.506,3.531-8.506,8.623c0,4.456,3.704,8.563,9.779,8.563
			c4.22,0,6.936-1.962,8.387-4.216v3.395h7l0.006-18.505C135.2,21.911,131.842,16.818,122.816,16.818z M127.676,34.641
			c0,5.032-3.009,6.596-6.249,6.596c-2.491,0-3.705-1.618-3.705-3.299c0-2.198,1.562-3.297,3.529-3.586l6.424-0.984L127.676,34.641
			L127.676,34.641z"/>
		<path fill="#C4C9D3" d="M196.146,16.818c-6.979,0-11.002,4.109-11.998,8.217c-0.004,0.01,0.003-0.011,0,0
			c-0.306,1.19-0.32,2.603-0.32,2.603h6.94c0.229-2.487,2.083-4.628,5.438-4.628c3.241,0,4.804,1.677,4.804,3.704
			c0,0.984-0.523,1.793-2.141,2.023l-7.004,1.042c-4.744,0.695-8.506,3.531-8.506,8.623c0,4.456,3.704,8.563,9.779,8.563
			c4.22,0,6.938-1.962,8.388-4.216v3.395h7.001l0.006-18.505C208.531,21.911,205.173,16.818,196.146,16.818z M201.009,34.641
			c0,5.032-3.011,6.596-6.25,6.596c-2.49,0-3.706-1.618-3.706-3.299c0-2.198,1.563-3.297,3.53-3.586l6.426-0.984V34.641z"/>
		<path fill="#C4C9D3" d="M264.688,16.818c-6.981,0-11.004,4.109-12,8.217c-0.005,0.01,0.002-0.011,0,0
			c-0.305,1.19-0.322,2.603-0.322,2.603h6.94c0.228-2.487,2.084-4.628,5.439-4.628c3.238,0,4.804,1.677,4.804,3.704
			c0,0.984-0.521,1.793-2.142,2.023l-7.004,1.042c-4.744,0.695-8.505,3.531-8.505,8.623c0,4.456,3.701,8.563,9.778,8.563
			c4.22,0,6.937-1.962,8.389-4.216v3.395h6.999l0.008-18.505C277.073,21.911,273.712,16.818,264.688,16.818z M269.549,34.641
			c0,5.032-3.012,6.596-6.25,6.596c-2.49,0-3.706-1.618-3.706-3.299c0-2.198,1.564-3.297,3.53-3.586l6.426-0.984V34.641z"/>
		<path fill="#C4C9D3" d="M337.529,16.818c-6.979,0-11.005,4.109-11.998,8.217c-0.005,0.01,0.002-0.011,0,0
			c-0.307,1.19-0.321,2.603-0.321,2.603h6.94c0.227-2.487,2.084-4.628,5.439-4.628c3.238,0,4.804,1.677,4.804,3.704
			c0,0.984-0.524,1.793-2.142,2.023l-7.004,1.042c-4.747,0.695-8.508,3.531-8.508,8.623c0,4.456,3.704,8.563,9.778,8.563
			c4.223,0,6.938-1.962,8.389-4.216v3.395h7.002l0.005-18.505C349.913,21.911,346.553,16.818,337.529,16.818z M342.392,34.641
			c0,5.032-3.012,6.596-6.25,6.596c-2.492,0-3.706-1.618-3.706-3.299c0-2.198,1.562-3.297,3.53-3.586l6.426-0.984L342.392,34.641
			L342.392,34.641z"/>
	</g>
</g>
</svg>
