<?xml version="1.0" encoding="utf-8"?>
<!-- Generator: Adobe Illustrator 17.0.2, SVG Export Plug-In . SVG Version: 6.00 Build 0)  -->
<!DOCTYPE svg PUBLIC "-//W3C//DTD SVG 1.1//EN" "http://www.w3.org/Graphics/SVG/1.1/DTD/svg11.dtd">
<svg version="1.1" id="Layer_1" xmlns="http://www.w3.org/2000/svg" xmlns:xlink="http://www.w3.org/1999/xlink" x="0px" y="0px"
	 width="222px" height="364.45px" viewBox="195.383 214.36 222 364.45" enable-background="new 195.383 214.36 222 364.45"
	 xml:space="preserve">
<g>
	<circle fill="none" cx="306.383" cy="502.961" r="11.1"/>
	<path fill="none" d="M217.583,556.61L217.583,556.61h177.6V236.56h-177.6L217.583,556.61L217.583,556.61z M306.382,469.66
		c18.392,0,33.3,14.909,33.3,33.301c0,18.391-14.908,33.299-33.3,33.299c-18.391,0-33.3-14.908-33.3-33.299
		C273.082,484.569,287.992,469.66,306.382,469.66z"/>
	<polygon fill="#F58B3D" points="395.183,236.56 417.383,236.56 395.183,214.36 217.583,214.36 217.583,236.56 	"/>
	<polygon fill="#F58B3D" points="217.583,556.61 217.583,556.61 195.383,556.61 195.383,556.61 217.583,578.81 395.183,578.81 
		395.183,556.61 	"/>
	<polygon fill="#3A4D6D" points="395.183,236.56 395.183,556.61 395.183,578.81 417.383,556.61 417.383,236.56 	"/>
	<path fill="#3A4D6D" d="M195.383,556.61L195.383,556.61L195.383,556.61z"/>
	<polygon fill="#3A4D6D" points="217.583,236.56 217.583,214.36 195.383,236.56 195.383,556.61 217.583,556.61 	"/>
	<path fill="#F58B3D" d="M306.382,536.26c18.392,0,33.3-14.908,33.3-33.299c0-18.392-14.908-33.301-33.3-33.301
		c-18.391,0-33.3,14.909-33.3,33.301C273.082,521.352,287.992,536.26,306.382,536.26z M306.383,491.861
		c6.131,0,11.1,4.969,11.1,11.1c0,6.13-4.969,11.1-11.1,11.1s-11.1-4.97-11.1-11.1C295.283,496.83,300.252,491.861,306.383,491.861z
		"/>
</g>
</svg>
