<?xml version="1.0" encoding="utf-8"?>
<!-- Generator: Adobe Illustrator 17.0.2, SVG Export Plug-In . SVG Version: 6.00 Build 0)  -->
<!DOCTYPE svg PUBLIC "-//W3C//DTD SVG 1.1//EN" "http://www.w3.org/Graphics/SVG/1.1/DTD/svg11.dtd">
<svg version="1.1" id="Layer_1" xmlns="http://www.w3.org/2000/svg" xmlns:xlink="http://www.w3.org/1999/xlink" x="0px" y="0px"
	 width="222.889px" height="236px" viewBox="0 0 222.889 236" enable-background="new 0 0 222.889 236" xml:space="preserve">
<g>
	<path fill="#F58B3D" d="M39.327,78.666L39.327,78.666C17.607,78.669,0,96.278,0,117.999l0,0h13.087l0,0
		c0-14.496,11.751-26.247,26.247-26.247V78.666H39.327z"/>
	<path fill="#F58B3D" d="M65.556,78.666v13.087c14.496,0,26.247,11.751,26.247,26.247h-0.025v78.667h0.025
		c0,14.496-11.751,26.247-26.247,26.247l0,0H39.334c-14.496,0-26.247-11.751-26.247-26.247h0.025V118H0.001v78.667
		C0.001,218.39,17.611,236,39.334,236h26.222c21.723,0,39.333-17.61,39.333-39.333V118C104.889,96.276,87.279,78.666,65.556,78.666z
		"/>
	<polygon fill="#3A4D6D" points="52.445,91.777 52.445,135.893 65.556,135.893 65.556,91.777 65.556,91.752 65.556,78.666 	"/>
	<path fill="#3A4D6D" d="M170.434,78.672H157.34c0.003,36.2,29.349,65.546,65.549,65.549v-13.094
		C193.92,131.124,170.437,107.641,170.434,78.672z"/>
	<path fill="#3A4D6D" d="M157.334,78.666h13.117V65.549h-0.012C170.436,29.352,141.096,0.009,104.9,0l0,0
		C68.7,0.003,39.354,29.349,39.351,65.549h-0.023v13.117l0,0h0.006v13.086v0.025l13.111-13.111l0,0V65.555
		c0.003-28.965,23.48-52.452,52.444-52.461l0,0c28.969,0.003,52.452,23.486,52.456,52.455h-0.011V78.666z"/>
</g>
</svg>
