<?xml version="1.0" encoding="utf-8"?>
<!-- Generator: Adobe Illustrator 17.0.2, SVG Export Plug-In . SVG Version: 6.00 Build 0)  -->
<!DOCTYPE svg PUBLIC "-//W3C//DTD SVG 1.1//EN" "http://www.w3.org/Graphics/SVG/1.1/DTD/svg11.dtd">
<svg version="1.1" id="Layer_1" xmlns="http://www.w3.org/2000/svg" xmlns:xlink="http://www.w3.org/1999/xlink" x="0px" y="0px"
	 width="262.207px" height="348.057px" viewBox="0 0 262.207 348.057" enable-background="new 0 0 262.207 348.057"
	 xml:space="preserve">
<g>
	<polygon fill="none" points="166.801,187.321 166.801,163.865 143.345,163.865 143.345,210.777 166.801,210.777 	"/>
	<polygon fill="none" points="96.433,93.498 96.433,116.953 96.433,140.409 119.889,140.409 119.889,93.498 	"/>
	<polygon fill="#F58B3D" points="238.751,0 0.045,0 0,23.456 238.751,23.456 262.207,23.456 	"/>
	<polygon fill="#3A4D6D" points="262.207,23.456 238.751,23.456 238.744,224.307 262.229,200.815 	"/>
	<rect x="143.345" y="70.042" fill="#3A4D6D" width="23.456" height="23.456"/>
	<rect x="96.433" y="70.042" fill="#3A4D6D" width="23.455" height="23.456"/>
	<rect x="96.433" y="210.777" fill="#3A4D6D" width="23.455" height="23.456"/>
	<polygon fill="#3A4D6D" points="166.802,234.233 166.802,234.232 166.801,234.233 	"/>
	<rect x="143.345" y="210.777" fill="#3A4D6D" width="23.456" height="23.456"/>
	<polygon fill="#F58B3D" points="119.889,257.689 143.345,257.689 143.345,234.233 143.345,210.777 143.345,163.865 
		119.889,163.865 119.889,210.777 119.889,234.233 	"/>
	<polygon fill="#F58B3D" points="119.889,140.409 143.345,140.409 143.345,93.498 143.345,70.042 143.345,46.911 119.889,46.911 
		119.889,70.042 119.889,93.498 	"/>
	<polygon fill="#F58B3D" points="166.801,116.953 190.257,116.953 190.257,93.498 166.801,70.042 166.801,93.498 	"/>
	<polygon fill="#F58B3D" points="72.977,187.321 72.977,210.777 96.433,234.233 96.433,210.777 96.433,187.321 	"/>
	<polygon fill="#F58B3D" points="166.801,163.865 166.801,187.321 166.801,210.777 166.801,234.233 166.802,234.232 
		190.257,210.777 190.257,187.321 190.257,163.865 166.802,140.41 166.802,163.865 	"/>
	<polygon fill="#F58B3D" points="96.433,116.953 96.433,93.498 96.433,70.042 72.977,93.498 72.977,116.953 72.977,140.409 
		96.433,163.865 96.433,140.409 	"/>
	<polygon fill="#3A4D6D" points="166.801,163.865 166.802,163.865 166.802,140.41 166.802,140.409 143.345,140.409 119.889,140.409 
		96.433,140.409 96.433,163.865 119.889,163.865 143.345,163.865 	"/>
	<line fill="none" x1="0.038" y1="46.87" x2="0.038" y2="46.956"/>
	<polygon fill="#F58B3D" points="23.498,224.305 23.482,200.815 23.482,70.283 23.47,70.283 23.47,46.956 0.038,46.956 
		0.038,70.283 0.026,70.283 0.026,200.815 0.014,200.815 	"/>
	<polygon fill="#3A4D6D" points="147.216,348.057 147.206,348.047 147.195,348.057 	"/>
	<polygon fill="#3A4D6D" points="23.498,224.305 0.014,200.815 23.501,257.473 115.037,348.047 131.121,331.958 	"/>
	<polygon fill="#F58B3D" points="262.229,200.815 238.744,224.307 131.121,331.958 115.037,348.047 115.027,348.057 
		115.047,348.057 147.195,348.057 147.206,348.047 238.743,257.473 	"/>
</g>
</svg>
