<?xml version="1.0" encoding="utf-8"?>
<!-- Generator: Adobe Illustrator 17.0.2, SVG Export Plug-In . SVG Version: 6.00 Build 0)  -->
<!DOCTYPE svg PUBLIC "-//W3C//DTD SVG 1.1//EN" "http://www.w3.org/Graphics/SVG/1.1/DTD/svg11.dtd">
<svg version="1.1" id="Layer_1" xmlns="http://www.w3.org/2000/svg" xmlns:xlink="http://www.w3.org/1999/xlink" x="0px" y="0px"
	 width="150px" height="30px" viewBox="0 0 150 30" enable-background="new 0 0 150 30" xml:space="preserve">
<path fill="#FFFFFF" d="M67,0H43c-1.657,0-3,1.343-3,3v24c0,1.657,1.343,3,3,3h24c1.657,0,3-1.343,3-3V3C70,1.343,68.657,0,67,0z
	 M62.953,10.984c0.008,0.174,0.012,0.348,0.012,0.523C62.965,16.844,58.838,23,51.29,23c-2.317,0-4.474-0.669-6.29-1.816
	c0.321,0.037,0.648,0.057,0.979,0.057c1.922,0,3.692-0.647,5.096-1.729c-1.795-0.033-3.311-1.201-3.833-2.805
	c0.25,0.047,0.508,0.073,0.772,0.073c0.374,0,0.737-0.049,1.081-0.142c-1.877-0.37-3.292-2.004-3.292-3.96c0-0.017,0-0.034,0-0.051
	c0.553,0.303,1.186,0.484,1.858,0.505c-1.101-0.725-1.825-1.961-1.825-3.362c0-0.741,0.202-1.436,0.556-2.032
	c2.024,2.444,5.047,4.052,8.457,4.221c-0.07-0.297-0.106-0.604-0.106-0.921C54.743,8.807,56.58,7,58.846,7
	c1.18,0,2.247,0.49,2.995,1.275c0.935-0.182,1.813-0.518,2.606-0.981c-0.306,0.944-0.957,1.735-1.804,2.236
	c0.83-0.099,1.621-0.315,2.357-0.637C64.45,9.703,63.754,10.414,62.953,10.984z"/>
<path fill="#FFFFFF" d="M107,0H83c-1.657,0-3,1.343-3,3v24c0,1.657,1.343,3,3,3h24c1.657,0,3-1.343,3-3V3C110,1.343,108.657,0,107,0
	z M90.086,23h-3.858V11.531h3.858V23z M88.157,9.965h-0.025C86.837,9.965,86,9.083,86,7.982C86,6.857,86.863,6,88.183,6
	c1.319,0,2.132,0.857,2.157,1.982C90.34,9.083,89.502,9.965,88.157,9.965z M104,23h-3.858v-6.137c0-1.542-0.558-2.594-1.955-2.594
	c-1.066,0-1.701,0.71-1.979,1.395c-0.102,0.245-0.127,0.587-0.127,0.93V23h-3.859c0,0,0.051-10.394,0-11.469h3.859v1.624
	c0.513-0.782,1.43-1.895,3.477-1.895c2.539,0,4.443,1.639,4.443,5.163L104,23L104,23z"/>
<g>
	<path fill="#FFFFFF" d="M132.896,18.826c-0.148-0.018-0.528,0-1.138,0.057c-0.602,0.084-1.217,0.22-1.846,0.408
		c-0.148,0.057-0.357,0.142-0.625,0.254c-0.268,0.122-0.541,0.297-0.819,0.522c-0.269,0.234-0.495,0.526-0.68,0.874
		c-0.213,0.366-0.319,0.809-0.319,1.325c0,1.014,0.463,1.852,1.388,2.51c0.879,0.657,2.083,0.995,3.61,1.014
		c1.37-0.019,2.416-0.32,3.138-0.902c0.703-0.573,1.055-1.311,1.055-2.212c0-0.733-0.241-1.372-0.722-1.918
		c-0.509-0.516-1.305-1.15-2.388-1.902C133.363,18.835,133.146,18.826,132.896,18.826z"/>
	<path fill="#FFFFFF" d="M147,0h-24c-1.657,0-3,1.343-3,3v24c0,1.657,1.343,3,3,3h24c1.657,0,3-1.343,3-3V3
		C150,1.343,148.657,0,147,0z M136.151,6.534c0.219,0.226,0.434,0.503,0.644,0.833c0.201,0.309,0.379,0.676,0.534,1.099
		c0.128,0.424,0.192,0.916,0.192,1.48c-0.017,1.033-0.247,1.86-0.689,2.48c-0.217,0.299-0.446,0.578-0.689,0.831
		c-0.269,0.254-0.554,0.512-0.857,0.776c-0.173,0.178-0.333,0.38-0.481,0.607c-0.173,0.233-0.26,0.506-0.26,0.816
		c0,0.301,0.089,0.549,0.266,0.746c0.151,0.189,0.297,0.353,0.44,0.494l0.986,0.803c0.613,0.498,1.15,1.048,1.612,1.649
		c0.435,0.612,0.662,1.41,0.68,2.397c0,1.401-0.622,2.64-1.866,3.721c-1.29,1.118-3.151,1.695-5.583,1.734
		c-2.036-0.021-3.556-0.452-4.56-1.297c-1.014-0.787-1.521-1.729-1.521-2.827c0-0.533,0.165-1.129,0.495-1.787
		c0.32-0.656,0.899-1.232,1.737-1.73c0.942-0.535,1.931-0.891,2.967-1.069c1.026-0.15,1.878-0.235,2.557-0.253
		c-0.209-0.274-0.396-0.567-0.56-0.879c-0.191-0.302-0.287-0.666-0.287-1.091c0-0.255,0.036-0.468,0.109-0.637
		c0.064-0.18,0.123-0.346,0.178-0.497c-0.33,0.037-0.642,0.057-0.934,0.057c-1.547-0.019-2.727-0.502-3.538-1.451
		c-0.849-0.883-1.274-1.912-1.274-3.087c0-1.418,0.602-2.705,1.805-3.861c0.826-0.676,1.685-1.118,2.576-1.325
		c0.882-0.179,1.708-0.267,2.48-0.267h5.814l-1.796,1.041h-1.792C135.718,6.154,135.923,6.319,136.151,6.534z M147,9.624h-3.051
		v3.032h-1.477V9.624h-3.051V8.155h3.051V5.123h1.477v3.032H147V9.624z"/>
	<path fill="#FFFFFF" d="M133.091,6.479c-0.458-0.329-0.985-0.503-1.58-0.522c-0.788,0.019-1.443,0.334-1.965,0.946
		c-0.44,0.64-0.651,1.357-0.632,2.146c0,1.045,0.307,2.132,0.923,3.262c0.298,0.527,0.682,0.975,1.154,1.343
		c0.471,0.367,1.009,0.55,1.615,0.55c0.765-0.028,1.403-0.301,1.913-0.819c0.246-0.368,0.404-0.744,0.474-1.129
		c0.042-0.386,0.063-0.711,0.063-0.975c0-1.14-0.293-2.289-0.879-3.447C133.902,7.28,133.54,6.828,133.091,6.479z"/>
</g>
<path fill="#FFFFFF" d="M26.999,0H3C1.343,0,0,1.343,0,3v24c0,1.657,1.343,3,3,3h13.833V18.27H13.77v-4.224h3.063
	c0,0,0-1.73,0-3.607c0-2.835,1.81-5.438,5.979-5.438c1.688,0,2.937,0.164,2.937,0.164L25.65,9.109c0,0-1.273-0.012-2.662-0.012
	c-1.503,0-1.744,0.701-1.744,1.865c0,0.173,0,0.212,0,0.194c0,0.319,0,1.101,0,2.89h4.527l-0.197,4.224h-4.33V30H27
	c1.657,0,3-1.343,3-3V3C29.999,1.343,28.656,0,26.999,0z"/>
</svg>
