<?xml version="1.0" encoding="utf-8"?>
<!-- Generator: Adobe Illustrator 17.0.2, SVG Export Plug-In . SVG Version: 6.00 Build 0)  -->
<!DOCTYPE svg PUBLIC "-//W3C//DTD SVG 1.1//EN" "http://www.w3.org/Graphics/SVG/1.1/DTD/svg11.dtd">
<svg version="1.1" id="Layer_1" xmlns="http://www.w3.org/2000/svg" xmlns:xlink="http://www.w3.org/1999/xlink" x="0px" y="0px"
	 width="139px" height="35px" viewBox="0 0 139 35" enable-background="new 0 0 139 35" xml:space="preserve">
<g>
	<g>
		<polygon fill="#FFFFFF" points="74.667,23.411 78.186,19.713 74.965,19.713 71.942,22.965 71.942,16.066 69.595,16.066 
			69.595,28.671 71.942,28.671 71.942,26.283 72.962,25.209 75.356,28.671 78.376,28.671 		"/>
		<path fill="#FFFFFF" d="M47.129,19.31c-1.354,0-2.059,0.313-2.685,0.991v-4.234h-2.3V28.67h2.262v-1.009
			c0.769,0.832,1.724,1.232,2.629,1.232c2.595,0,4.059-2.057,4.059-4.819C51.095,21.367,49.798,19.31,47.129,19.31z M46.688,26.686
			c-1.242,0-2.204-0.945-2.204-2.595c0-1.669,0.961-2.576,2.204-2.576c1.26,0,2.02,0.907,2.02,2.576
			C48.707,25.759,47.948,26.686,46.688,26.686z"/>
		<path fill="#FFFFFF" d="M65.55,19.347c-0.981,0-1.893,0.39-2.45,1.334v-1.106h-2.392v9.096h2.466v-5.245
			c0-1.057,0.459-1.891,1.535-1.891c1.186,0,1.676,0.833,1.676,1.852v5.321h2.465v-5.747C68.85,20.96,67.759,19.347,65.55,19.347z"
			/>
		<path fill="#FFFFFF" d="M55.819,19.035c-2.295,0-3.618,1.351-3.945,2.701c-0.1,0.392-0.105,0.856-0.105,0.856h2.281
			c0.075-0.818,0.685-1.522,1.788-1.522c1.065,0,1.579,0.552,1.579,1.218c0,0.323-0.172,0.589-0.704,0.666l-2.302,0.342
			c-1.56,0.228-2.796,1.161-2.796,2.836c0,1.464,1.218,2.815,3.215,2.815c1.387,0,2.28-0.645,2.757-1.387v1.111h2.301l0.002-6.079
			C59.89,20.709,58.786,19.035,55.819,19.035z M57.417,24.894c0,1.654-0.989,2.169-2.054,2.169c-0.819,0-1.218-0.533-1.218-1.085
			c0-0.723,0.514-1.084,1.16-1.179l2.113-0.324V24.894L57.417,24.894z"/>
		<path fill="#FFFFFF" d="M23.608,11.804L23.608,11.804C23.608,5.284,18.323,0,11.805,0C5.285,0,0,5.284,0,11.804l3.369,3.369h3.373
			v3.373l3.369,3.367h3.385v3.388l3.369,3.37v0h3.374v3.37l3.369,3.371v0.001c0,0,0,0,0.001,0c6.519,0,11.803-5.285,11.803-11.804
			C35.412,17.089,30.127,11.804,23.608,11.804z M13.497,18.546h-3.385v-3.373h3.385V18.546z M10.111,11.804
			c0-0.935,0.758-1.692,1.693-1.692c0.935,0,1.692,0.758,1.692,1.692H10.111z M20.239,25.298h-3.373v-3.403l0.002,0.017h3.372
			V25.298z M16.866,18.546v-3.373h3.373v3.373 M16.866,11.804c0-2.795-2.266-5.062-5.061-5.062c-2.795,0-5.062,2.267-5.062,5.062
			H3.369c0-4.658,3.776-8.435,8.435-8.435c4.658,0,8.435,3.777,8.435,8.435H16.866z M23.608,32.043V28.67
			c2.795,0,5.061-2.267,5.061-5.062c0-2.796-2.266-5.062-5.062-5.062h0.001v-3.373c4.658,0,8.434,3.777,8.434,8.435
			S28.267,32.043,23.608,32.043z M23.608,25.301v-3.386c0.935,0.001,1.692,0.759,1.692,1.693C25.3,24.543,24.543,25.3,23.608,25.301
			z"/>
	</g>
	<g>
		<path fill="#FFFFFF" d="M138.999,15.171h-2.307v-1.01c-0.77,0.832-1.724,1.232-2.629,1.232c-2.596,0-4.059-2.058-4.059-4.819
			c0-2.707,1.296-4.764,3.965-4.764c1.354,0,2.06,0.313,2.686,0.991V2.567h2.345L138.999,15.171
			C138.999,15.171,138.999,15.171,138.999,15.171z M132.39,10.592c0,1.668,0.759,2.594,2.02,2.594c1.242,0,2.203-0.944,2.203-2.594
			c0-1.669-0.961-2.576-2.203-2.576C133.149,8.017,132.39,8.923,132.39,10.592z"/>
		<g>
			<g>
				<path fill="#FFFFFF" d="M45.518,15.171V6.058h2.353v1.111c0.5-0.888,1.666-1.369,2.667-1.369c1.241,0,2.241,0.536,2.704,1.517
					c0.722-1.11,1.684-1.517,2.889-1.517c1.686,0,3.297,1.017,3.297,3.463v5.908h-2.39V9.762c0-0.982-0.481-1.723-1.611-1.723
					c-1.056,0-1.685,0.815-1.685,1.797v5.334h-2.445V9.762c0-0.982-0.5-1.723-1.612-1.723c-1.073,0-1.703,0.795-1.703,1.797v5.334
					L45.518,15.171L45.518,15.171z"/>
				<path fill="#FFFFFF" d="M69.595,15.173V2.5h2.347v12.673H69.595z"/>
				<path fill="#FFFFFF" d="M92.002,15.171V6.058h2.353v1.111C94.856,6.281,96.022,5.8,97.022,5.8c1.241,0,2.242,0.536,2.704,1.517
					c0.723-1.11,1.686-1.517,2.889-1.517c1.684,0,3.296,1.017,3.296,3.463v5.908h-2.389V9.762c0-0.982-0.482-1.723-1.612-1.723
					c-1.056,0-1.685,0.815-1.685,1.797v5.334h-2.445V9.762c0-0.982-0.5-1.723-1.611-1.723c-1.074,0-1.704,0.795-1.704,1.797v5.334
					L92.002,15.171L92.002,15.171z"/>
				<path fill="#FFFFFF" d="M118.305,6.058h1.834v2.187h-1.834v3.815c0,0.796,0.371,1.056,1.075,1.056
					c0.296,0,0.629-0.038,0.76-0.074v2.036c-0.224,0.093-0.668,0.222-1.39,0.222c-1.779,0-2.89-1.054-2.89-2.814V2.88h2.446
					L118.305,6.058L118.305,6.058z"/>
				<path fill="#FFFFFF" d="M125.151,13.337c-1.221,0-2.24-0.871-2.296-2.075h6.52c0-0.037,0.036-0.408,0.036-0.76
					c0-2.927-1.685-4.723-4.5-4.723c-2.334,0-4.483,1.888-4.483,4.798c0,3.073,2.204,4.871,4.705,4.871
					c2.242,0,3.686-1.315,4.148-2.89h-2.385C126.539,13.034,125.983,13.337,125.151,13.337z M124.948,7.78
					c1.408,0,2,0.889,2.038,1.798h-4.074C122.966,8.744,123.67,7.78,124.948,7.78z"/>
				<g>
					<path fill="#FFFFFF" d="M79.651,6.058v1.075c-0.315-0.612-1.147-1.241-2.592-1.241c-2.5,0-4.241,2.036-4.241,4.444
						c0,2.555,1.815,4.428,4.241,4.428c1.315,0,2.166-0.575,2.537-1.168v0.666c0,1.76-0.87,2.538-2.426,2.538
						c-0.727,0-1.305-0.283-1.681-0.734h-2.582c0.436,1.574,2.028,2.902,4.336,2.902c3.428,0,4.779-2.28,4.779-4.78V6.058H79.651z
						 M77.484,12.651c-1.279,0-2.185-0.888-2.185-2.315c0-1.407,0.963-2.296,2.185-2.296c1.185,0,2.149,0.889,2.149,2.296
						C79.634,11.744,78.744,12.651,77.484,12.651z"/>
				</g>
			</g>
			<path fill="#FFFFFF" d="M40.377,5.529c-2.295,0-3.618,1.351-3.945,2.701c-0.001,0.003,0.001-0.004,0,0
				c-0.101,0.391-0.105,0.856-0.105,0.856h2.282c0.075-0.818,0.685-1.522,1.788-1.522c1.065,0,1.579,0.551,1.579,1.218
				c0,0.324-0.172,0.589-0.704,0.665L38.969,9.79c-1.56,0.228-2.796,1.161-2.796,2.835c0,1.465,1.218,2.815,3.215,2.815
				c1.387,0,2.28-0.645,2.757-1.386v1.116h2.301l0.002-6.084C44.449,7.204,43.345,5.529,40.377,5.529z M41.975,11.389
				c0,1.654-0.989,2.169-2.054,2.169c-0.819,0-1.218-0.532-1.218-1.085c0-0.723,0.514-1.084,1.16-1.179l2.112-0.324L41.975,11.389
				L41.975,11.389z"/>
			<path fill="#FFFFFF" d="M64.485,5.529c-2.294,0-3.617,1.351-3.944,2.701c-0.001,0.003,0.001-0.004,0,0
				c-0.101,0.391-0.105,0.856-0.105,0.856h2.282c0.075-0.818,0.685-1.522,1.788-1.522c1.066,0,1.579,0.551,1.579,1.218
				c0,0.324-0.172,0.589-0.704,0.665L63.078,9.79c-1.56,0.228-2.796,1.161-2.796,2.835c0,1.465,1.218,2.815,3.215,2.815
				c1.387,0,2.281-0.645,2.758-1.386v1.116h2.302l0.002-6.084C68.557,7.204,67.453,5.529,64.485,5.529z M66.084,11.389
				c0,1.654-0.99,2.169-2.055,2.169c-0.819,0-1.218-0.532-1.218-1.085c0-0.723,0.514-1.084,1.161-1.179l2.113-0.324V11.389z"/>
			<path fill="#FFFFFF" d="M87.02,5.529c-2.295,0-3.618,1.351-3.945,2.701c-0.002,0.003,0.001-0.004,0,0
				c-0.1,0.391-0.106,0.856-0.106,0.856h2.282c0.075-0.818,0.685-1.522,1.788-1.522c1.065,0,1.579,0.551,1.579,1.218
				c0,0.324-0.171,0.589-0.704,0.665L85.611,9.79c-1.56,0.228-2.796,1.161-2.796,2.835c0,1.465,1.217,2.815,3.215,2.815
				c1.387,0,2.281-0.645,2.758-1.386v1.116h2.301l0.003-6.084C91.091,7.204,89.986,5.529,87.02,5.529z M88.618,11.389
				c0,1.654-0.99,2.169-2.055,2.169c-0.819,0-1.218-0.532-1.218-1.085c0-0.723,0.514-1.084,1.161-1.179l2.113-0.324V11.389z"/>
			<path fill="#FFFFFF" d="M110.967,5.529c-2.294,0-3.618,1.351-3.944,2.701c-0.002,0.003,0.001-0.004,0,0
				c-0.101,0.391-0.106,0.856-0.106,0.856h2.282c0.075-0.818,0.685-1.522,1.788-1.522c1.065,0,1.579,0.551,1.579,1.218
				c0,0.324-0.172,0.589-0.704,0.665l-2.303,0.343c-1.561,0.228-2.797,1.161-2.797,2.835c0,1.465,1.218,2.815,3.215,2.815
				c1.388,0,2.281-0.645,2.758-1.386v1.116h2.302l0.002-6.084C115.038,7.204,113.934,5.529,110.967,5.529z M112.566,11.389
				c0,1.654-0.99,2.169-2.055,2.169c-0.819,0-1.218-0.532-1.218-1.085c0-0.723,0.514-1.084,1.161-1.179l2.113-0.324V11.389
				L112.566,11.389z"/>
		</g>
	</g>
</g>
</svg>
