<?xml version="1.0" encoding="utf-8"?>
<!-- Generator: Adobe Illustrator 17.0.2, SVG Export Plug-In . SVG Version: 6.00 Build 0)  -->
<!DOCTYPE svg PUBLIC "-//W3C//DTD SVG 1.1//EN" "http://www.w3.org/Graphics/SVG/1.1/DTD/svg11.dtd">
<svg version="1.1" id="Layer_1" xmlns="http://www.w3.org/2000/svg" xmlns:xlink="http://www.w3.org/1999/xlink" x="0px" y="0px"
	 width="143px" height="37px" viewBox="0 0 143 37" enable-background="new 0 0 143 37" xml:space="preserve">
<g>
	<g>
		<g>
			<g>
				<path fill="#4F515A" d="M31.3,19.378v-0.015h-0.013C31.293,19.367,31.297,19.373,31.3,19.378z"/>
				<path fill="#4F515A" d="M31.3,19.378v-0.015h-0.013C31.293,19.367,31.297,19.373,31.3,19.378z"/>
				<path fill="#4F515A" d="M31.3,19.378v-0.015h-0.013C31.293,19.367,31.297,19.373,31.3,19.378z"/>
				<g>
					<g>
						<path fill="#F68B3C" d="M12.144,7.044c-2.876,0-5.208,2.368-5.208,5.289v7.045l3.466,3.518V12.333
							c0-0.977,0.78-1.768,1.742-1.768c0.962,0,1.741,0.792,1.741,1.768h3.466C17.351,9.412,15.02,7.044,12.144,7.044z"/>
						<polygon fill="#F68B3C" points="24.288,37 20.822,33.478 20.822,22.896 24.288,22.896 						"/>
						<path fill="#F68B3C" d="M24.288,12.333C24.288,5.521,18.851,0,12.144,0C5.437,0,0,5.521,0,12.333l3.466,3.52v-3.52l0,0
							c0-4.867,3.885-8.813,8.678-8.813c4.792,0,8.678,3.946,8.678,8.813v7.045h3.466L24.288,12.333L24.288,12.333z"/>
						<polygon fill="#F68B3C" points="17.351,29.956 13.885,26.435 13.885,15.853 17.351,15.853 						"/>
					</g>
					<path fill="#4F515A" d="M14.742,14.303v-0.015H14.73C14.734,14.294,14.739,14.298,14.742,14.303z"/>
					<path fill="#4F515A" d="M14.742,14.303v-0.015H14.73C14.734,14.294,14.739,14.298,14.742,14.303z"/>
					<path fill="#4F515A" d="M14.742,14.303v-0.015H14.73C14.734,14.294,14.739,14.298,14.742,14.303z"/>
				</g>
			</g>
			<g>
				<polygon fill="#FFFFFF" points="80.437,20.597 77.123,20.597 74.013,23.995 74.013,16.787 71.598,16.787 71.598,29.956 
					74.013,29.956 74.013,27.462 75.062,26.339 77.525,29.956 80.632,29.956 76.816,24.461 				"/>
				<g>
					<path fill="#FFFFFF" d="M43.358,16.787h2.366v4.424c0.644-0.708,1.369-1.035,2.762-1.035c2.745,0,4.08,2.15,4.08,4.977
						c0,2.886-1.506,5.035-4.176,5.035c-0.931,0-1.914-0.418-2.705-1.287v1.055h-2.327L43.358,16.787L43.358,16.787z M48.032,22.481
						c-1.278,0-2.267,0.947-2.267,2.692c0,1.724,0.989,2.711,2.267,2.711c1.296,0,2.078-0.968,2.078-2.711
						C50.11,23.428,49.328,22.481,48.032,22.481z"/>
					<path fill="#FFFFFF" d="M64.993,29.956h-2.537v-9.504h2.461v1.156c0.572-0.987,1.512-1.394,2.52-1.394
						c2.273,0,3.395,1.685,3.395,3.776v6.005h-2.536v-5.56c0-1.065-0.504-1.935-1.724-1.935c-1.107,0-1.579,0.872-1.579,1.976
						L64.993,29.956L64.993,29.956z"/>
					<path fill="#FFFFFF" d="M57.426,19.888c-2.361,0-3.722,1.411-4.059,2.822c-0.001,0.003,0.001-0.003,0,0
						c-0.103,0.409-0.108,0.894-0.108,0.894h2.347c0.077-0.854,0.705-1.59,1.84-1.59c1.096,0,1.624,0.577,1.624,1.272
						c0,0.338-0.177,0.616-0.724,0.696l-2.369,0.358c-1.605,0.239-2.877,1.213-2.877,2.963c0,1.53,1.253,2.941,3.308,2.941
						c1.427,0,2.346-0.674,2.837-1.449v1.161h2.368l0.002-6.351C61.614,21.638,60.479,19.888,57.426,19.888z M59.07,26.01
						c0,1.728-1.018,2.266-2.114,2.266c-0.843,0-1.253-0.556-1.253-1.134c0-0.755,0.528-1.133,1.193-1.232l2.173-0.338V26.01
						L59.07,26.01z"/>
				</g>
			</g>
			<g>
				<path fill="#FFFFFF" d="M32.965,24.667c0,4.868-3.885,8.813-8.678,8.813V37c6.707,0,12.144-5.521,12.144-12.333
					c0-6.812-5.437-12.334-12.144-12.334v3.52C29.08,15.853,32.965,19.799,32.965,24.667z"/>
				<rect x="3.466" y="12.333" fill="#FFFFFF" width="3.471" height="3.52"/>
				<rect x="10.402" y="19.378" fill="#FFFFFF" width="3.483" height="3.518"/>
				<rect x="17.351" y="26.433" fill="#FFFFFF" width="3.471" height="3.523"/>
				<rect x="10.402" y="12.333" fill="#FFFFFF" width="10.42" height="3.52"/>
				<path fill="#FFFFFF" d="M24.287,19.378h-6.934v3.518h6.934v0.002c0.962,0,1.741,0.792,1.741,1.769
					c0,0.977-0.779,1.768-1.741,1.768v3.52c2.876,0,5.208-2.368,5.208-5.289C29.495,21.745,27.163,19.378,24.287,19.378z"/>
			</g>
		</g>
		<g>
			<path fill="#F68B3C" d="M143,15.852h-2.374v-1.055c-0.792,0.869-1.774,1.287-2.705,1.287c-2.67,0-4.175-2.15-4.175-5.035
				c0-2.828,1.334-4.978,4.079-4.978c1.393,0,2.119,0.327,2.763,1.036V2.682H143L143,15.852C143,15.852,143,15.852,143,15.852z
				 M136.201,11.068c0,1.743,0.781,2.711,2.078,2.711c1.277,0,2.266-0.987,2.266-2.711c0-1.744-0.989-2.691-2.266-2.691
				C136.982,8.376,136.201,9.323,136.201,11.068z"/>
			<g>
				<g>
					<path fill="#F68B3C" d="M46.829,15.851V6.329h2.421v1.161c0.514-0.928,1.714-1.43,2.744-1.43c1.277,0,2.305,0.56,2.782,1.585
						c0.742-1.16,1.732-1.585,2.972-1.585c1.734,0,3.392,1.062,3.392,3.618v6.173h-2.459V10.2c0-1.026-0.494-1.8-1.657-1.8
						c-1.086,0-1.733,0.852-1.733,1.878v5.573h-2.515V10.2c0-1.026-0.514-1.8-1.659-1.8c-1.104,0-1.752,0.831-1.752,1.878v5.573
						L46.829,15.851L46.829,15.851z"/>
					<path fill="#F68B3C" d="M71.598,15.853V2.612h2.415v13.241H71.598z"/>
					<path fill="#F68B3C" d="M94.651,15.851V6.329h2.421v1.161c0.515-0.928,1.715-1.43,2.743-1.43c1.277,0,2.306,0.56,2.782,1.585
						c0.743-1.16,1.734-1.585,2.973-1.585c1.733,0,3.391,1.062,3.391,3.618v6.173h-2.458V10.2c0-1.026-0.496-1.8-1.658-1.8
						c-1.086,0-1.733,0.852-1.733,1.878v5.573h-2.515V10.2c0-1.026-0.514-1.8-1.657-1.8c-1.105,0-1.753,0.831-1.753,1.878v5.573
						L94.651,15.851L94.651,15.851z"/>
					<path fill="#F68B3C" d="M121.71,6.329h1.887v2.285h-1.887V12.6c0,0.832,0.381,1.104,1.106,1.104
						c0.304,0,0.647-0.04,0.782-0.078v2.127c-0.23,0.098-0.687,0.232-1.43,0.232c-1.83,0-2.974-1.101-2.974-2.94V3.009h2.516
						L121.71,6.329L121.71,6.329z"/>
					<path fill="#F68B3C" d="M128.754,13.935c-1.256,0-2.304-0.91-2.362-2.168h6.708c0-0.039,0.038-0.426,0.038-0.794
						c0-3.058-1.733-4.935-4.63-4.935c-2.401,0-4.612,1.973-4.612,5.013c0,3.211,2.267,5.089,4.84,5.089
						c2.306,0,3.792-1.374,4.268-3.019h-2.453C130.181,13.619,129.609,13.935,128.754,13.935z M128.545,8.129
						c1.448,0,2.057,0.929,2.096,1.879h-4.192C126.506,9.136,127.23,8.129,128.545,8.129z"/>
					<g>
						<path fill="#F68B3C" d="M81.943,6.329v1.123c-0.324-0.64-1.18-1.296-2.667-1.296c-2.572,0-4.363,2.128-4.363,4.643
							c0,2.67,1.867,4.627,4.363,4.627c1.353,0,2.229-0.6,2.61-1.22v0.696c0,1.838-0.895,2.652-2.495,2.652
							c-0.747,0-1.343-0.295-1.729-0.767h-2.656c0.448,1.644,2.086,3.032,4.461,3.032c3.526,0,4.917-2.382,4.917-4.994V6.329H81.943
							z M79.715,13.218c-1.315,0-2.248-0.928-2.248-2.419c0-1.471,0.991-2.399,2.248-2.399c1.219,0,2.211,0.929,2.211,2.399
							C81.926,12.27,81.01,13.218,79.715,13.218z"/>
					</g>
				</g>
				<path fill="#F68B3C" d="M41.54,5.777c-2.361,0-3.722,1.411-4.058,2.823c-0.001,0.003,0.001-0.004,0,0
					c-0.103,0.409-0.108,0.894-0.108,0.894h2.347c0.077-0.854,0.705-1.59,1.839-1.59c1.096,0,1.624,0.576,1.624,1.272
					c0,0.338-0.177,0.616-0.724,0.695l-2.369,0.358c-1.605,0.239-2.877,1.213-2.877,2.962c0,1.531,1.253,2.941,3.308,2.941
					c1.427,0,2.346-0.674,2.837-1.448v1.166h2.368l0.002-6.357C45.728,7.527,44.592,5.777,41.54,5.777z M43.183,11.899
					c0,1.729-1.018,2.266-2.114,2.266c-0.843,0-1.253-0.556-1.253-1.133c0-0.755,0.528-1.133,1.194-1.232l2.173-0.338L43.183,11.899
					L43.183,11.899z"/>
				<path fill="#F68B3C" d="M66.342,5.777c-2.36,0-3.721,1.411-4.058,2.823c-0.001,0.003,0.001-0.004,0,0
					c-0.103,0.409-0.108,0.894-0.108,0.894h2.347c0.077-0.854,0.705-1.59,1.839-1.59c1.096,0,1.625,0.576,1.625,1.272
					c0,0.338-0.177,0.616-0.724,0.695l-2.369,0.358c-1.605,0.239-2.877,1.213-2.877,2.962c0,1.531,1.253,2.941,3.308,2.941
					c1.427,0,2.347-0.674,2.837-1.448v1.166h2.368l0.002-6.357C70.531,7.527,69.395,5.777,66.342,5.777z M67.987,11.899
					c0,1.729-1.018,2.266-2.114,2.266c-0.842,0-1.253-0.556-1.253-1.133c0-0.755,0.529-1.133,1.194-1.232l2.173-0.338V11.899z"/>
				<path fill="#F68B3C" d="M89.524,5.777c-2.361,0-3.722,1.411-4.059,2.823c-0.002,0.003,0.001-0.004,0,0
					c-0.103,0.409-0.109,0.894-0.109,0.894h2.347c0.077-0.854,0.705-1.59,1.84-1.59c1.095,0,1.625,0.576,1.625,1.272
					c0,0.338-0.176,0.616-0.724,0.695l-2.369,0.358c-1.605,0.239-2.877,1.213-2.877,2.962c0,1.531,1.252,2.941,3.307,2.941
					c1.427,0,2.346-0.674,2.837-1.448v1.166h2.367l0.003-6.357C93.713,7.527,92.577,5.777,89.524,5.777z M91.169,11.899
					c0,1.729-1.019,2.266-2.114,2.266c-0.842,0-1.253-0.556-1.253-1.133c0-0.755,0.529-1.133,1.194-1.232l2.173-0.338V11.899z"/>
				<path fill="#F68B3C" d="M114.161,5.777c-2.36,0-3.722,1.411-4.058,2.823c-0.002,0.003,0.001-0.004,0,0
					c-0.104,0.409-0.109,0.894-0.109,0.894h2.347c0.077-0.854,0.705-1.59,1.84-1.59c1.095,0,1.625,0.576,1.625,1.272
					c0,0.338-0.177,0.616-0.724,0.695l-2.369,0.358c-1.606,0.239-2.878,1.213-2.878,2.962c0,1.531,1.253,2.941,3.307,2.941
					c1.428,0,2.347-0.674,2.837-1.448v1.166h2.368l0.002-6.357C118.35,7.527,117.213,5.777,114.161,5.777z M115.806,11.899
					c0,1.729-1.019,2.266-2.114,2.266c-0.843,0-1.253-0.556-1.253-1.133c0-0.755,0.528-1.133,1.194-1.232l2.173-0.338V11.899
					L115.806,11.899z"/>
			</g>
		</g>
	</g>
</g>
</svg>
